Coordinates
version=1
nRows=24
nColumns=24
inDegrees=yes

Units are S.I. units (second, meters, Newtons, ...)
Angles are in degrees.

endheader
time	pelvis_tilt	pelvis_list	pelvis_rotation	pelvis_tx	pelvis_ty	pelvis_tz	hip_flexion_r	hip_adduction_r	hip_rotation_r	knee_angle_r	ankle_angle_r	subtalar_angle_r	mtp_angle_r	hip_flexion_l	hip_adduction_l	hip_rotation_l	knee_angle_l	ankle_angle_l	subtalar_angle_l	mtp_angle_l	lumbar_extension	lumbar_bending	lumbar_rotation
      1.90000000	     27.38280141	     -3.84713210	      1.36556799	      0.27606276	      0.91934510	     -0.01583423	    -32.53107214	      6.28858177	     17.80555215	      6.94403026	     -0.70217833	     -9.70156384	     29.21419593	    -19.09170884	     -4.57038506	     -6.17843850	    -55.53878469	     -2.04107622	    -21.27349020	     22.38897117	    -34.22532760	      3.85750166	      1.82341863
      1.90500000	     27.42555259	     -3.66729550	      1.15771734	      0.28173206	      0.91951241	     -0.01552988	    -33.22617832	      5.93960019	     18.12377183	      7.44992105	     -0.77674981	    -10.05886940	     29.09946724	    -18.38342872	     -4.21433818	     -5.98029401	    -55.23900285	     -0.86478603	    -20.80662284	     22.39576104	    -34.28535180	      3.56241458	      1.96563593
      1.91000000	     27.46471816	     -3.40988758	      1.01336152	      0.28729299	      0.91963378	     -0.01537593	    -33.88883274	      5.55691871	     18.22917071	      7.90791257	     -0.71703725	    -10.24713597	     29.03746213	    -17.65818851	     -3.75802129	     -5.64775398	    -54.84162881	      0.03754491	    -20.65622191	     22.41547705	    -34.34922919	      3.22910970	      2.01995302
      1.91500000	     27.53392600	     -3.18408646	      0.98317197	      0.29254692	      0.91968017	     -0.01539805	    -34.54441287	      5.25830696	     18.38250385	      8.33231337	     -0.75234547	    -10.58121152	     28.93095680	    -16.90774309	     -3.34341885	     -5.13199769	    -54.45766064	      1.01422041	    -20.33231429	     22.43391603	    -34.47843861	      2.98711326	      1.99149959
      1.92000000	     27.57486924	     -2.99259977	      0.99224132	      0.29772059	      0.91958994	     -0.01548732	    -35.16282722	      5.01052528	     18.56901383	      8.76448511	     -0.78869059	    -11.05721435	     28.77644940	    -16.11299925	     -2.98068680	     -4.60925040	    -54.04949845	      1.98672975	    -20.03522240	     22.39596609	    -34.58405769	      2.80096987	      1.95905178
      1.92500000	     27.61501014	     -2.78217059	      1.04633074	      0.30276206	      0.91946459	     -0.01567776	    -35.73936325	      4.77832585	     18.68915928	      9.12217178	     -0.78625389	    -11.48452234	     28.62602401	    -15.31537266	     -2.57188071	     -3.96380733	    -53.56278337	      2.81797206	    -19.86698890	     22.31860277	    -34.70379218	      2.62381100	      1.89051875
      1.93000000	     27.65486492	     -2.59098212	      1.11037013	      0.30775957	      0.91927453	     -0.01589057	    -36.29286836	      4.57521681	     18.80514021	      9.43791038	     -0.74015442	    -11.88172269	     28.47967873	    -14.53280286	     -2.17557247	     -3.29426697	    -53.00843228	      3.57034965	    -19.75042606	     22.23275796	    -34.83007992	      2.47064799	      1.81659332
      1.93500000	     27.69507807	     -2.41378178	      1.14750488	      0.31276357	      0.91904687	     -0.01607167	    -36.80913833	      4.38561438	     18.88035457	      9.66449361	     -0.56029833	    -12.12027224	     28.41871723	    -13.78484524	     -1.77889947	     -2.63942308	    -52.36006994	      4.20176275	    -19.73473720	     22.22427323	    -34.95792768	      2.31611039	      1.78367732
      1.94000000	     27.73489928	     -2.31863722	      1.14066647	      0.31772200	      0.91876519	     -0.01621747	    -37.29288580	      4.24108677	     19.09324359	      9.84123852	     -0.35057055	    -12.28118088	     28.38634227	    -13.06541699	     -1.46376018	     -2.06107297	    -51.64695817	      4.82828856	    -19.79966579	     22.23587822	    -35.09553127	      2.22463630	      1.79541323
      1.94500000	     27.79127374	     -2.23940069	      1.11901659	      0.32262809	      0.91843376	     -0.01631706	    -37.82159247	      4.09066019	     19.48949316	     10.10691409	     -0.48840044	    -13.16765326	     28.08134918	    -12.38102082	     -1.17422109	     -1.49343487	    -50.88041532	      5.43265745	    -19.65900362	     22.10011217	    -35.25721146	      2.13596315	      1.86569246
      1.95000000	     27.82418595	     -2.20674869	      1.06297055	      0.32753648	      0.91807691	     -0.01638879	    -38.23664814	      3.99064810	     19.74045522	     10.16534603	     -0.18910523	    -13.28862857	     28.06775786	    -11.70714170	     -0.92558463	     -0.96230256	    -50.02308385	      5.90434433	    -19.75276016	     22.09824057	    -35.39594062	      2.07685334	      1.96395562
      1.95500000	     27.90625324	     -2.18606283	      0.96749766	      0.33233709	      0.91771789	     -0.01641049	    -38.72121809	      3.85999756	     20.18834934	     10.29643475	     -0.13287005	    -13.93449858	     27.83846623	    -11.11661884	     -0.68337790	     -0.45396003	    -49.08189054	      6.25189549	    -19.89476317	     21.96418222	    -35.60140737	      2.00658212	      2.10760943
      1.96000000	     27.94121362	     -2.24220882	      0.86271467	      0.33714856	      0.91728081	     -0.01642093	    -39.08134220	      3.82010593	     20.51914233	     10.25788808	      0.18101919	    -14.06249724	     27.82578668	    -10.49161518	     -0.54392693	      0.00554200	    -48.10711326	      6.66185867	    -20.00841802	     21.95725168	    -35.75556435	      2.00734855	      2.30747128
      1.96500000	     27.99855155	     -2.33973387	      0.66816911	      0.34178552	      0.91686095	     -0.01629548	    -39.45343426	      3.74374718	     21.17028417	     10.24792700	      0.27939966	    -14.75498342	     27.57988903	     -9.92455268	     -0.43912289	      0.38519190	    -47.03979303	      6.85201864	    -20.30615046	     21.81162398	    -35.95941150	      1.99452399	      2.59794459
      1.97000000	     28.05370775	     -2.46535479	      0.51241838	      0.34644776	      0.91638949	     -0.01623622	    -39.78474937	      3.74108909	     21.58193528	     10.13017902	      0.64525376	    -14.90507480	     27.56835274	     -9.37306431	     -0.38921102	      0.79975643	    -45.94017059	      7.15545139	    -20.40999087	     21.79848253	    -36.15640599	      2.03143812	      2.88002856
      1.97500000	     28.10108641	     -2.66208596	      0.24606605	      0.35092675	      0.91592480	     -0.01600991	    -40.08240562	      3.71404397	     22.37085114	     10.01844529	      0.75969051	    -15.59723156	     27.32559115	     -8.84658390	     -0.41074807	      1.09512261	    -44.75623420	      7.18438729	    -20.79419225	     21.66207473	    -36.37284935	      2.07108354	      3.27907879
      1.98000000	     28.16738702	     -2.87525195	      0.02798322	      0.35542340	      0.91542829	     -0.01585969	    -40.36855331	      3.75752548	     22.90053951	      9.80358454	      1.17545772	    -15.77383322	     27.31389772	     -8.36416913	     -0.48008510	      1.43085492	    -43.53834499	      7.38977506	    -20.91123117	     21.64207048	    -36.60687668	      2.15134106	      3.67111351
      1.98500000	     28.19561489	     -3.14366225	     -0.28411388	      0.35978746	      0.91491060	     -0.01554512	    -40.60282111	      3.77508578	     23.76800931	      9.61855994	      1.26361025	    -16.53306694	     27.04562749	     -7.87668159	     -0.60905281	      1.67907588	    -42.24001802	      7.29399069	    -21.32472255	     21.52808182	    -36.82083286	      2.22368298	      4.15601427
      1.99000000	     28.24983741	     -3.44782832	     -0.57107357	      0.36414524	      0.91438750	     -0.01525360	    -40.82548037	      3.86407489	     24.44737995	      9.31368246	      1.66542256	    -16.70522558	     27.02744427	     -7.44251653	     -0.81502425	      1.90955984	    -40.91724487	      7.34983751	    -21.45902548	     21.49916620	    -37.06671842	      2.33874888	      4.61690027
      1.99500000	     28.26644838	     -3.77707085	     -0.87790199	      0.36843355	      0.91378924	     -0.01498154	    -41.04090057	      3.92976824	     25.33366271	      9.11789088	      1.81750153	    -17.30208763	     26.83617919	     -6.99445186	     -1.03937565	      2.17763278	    -39.54480664	      7.17766976	    -21.85734624	     21.43500832	    -37.28495388	      2.46874347	      5.13062742
      2.00000000	     28.28972556	     -4.13768889	     -1.19006829	      0.37275906	      0.91321596	     -0.01463825	    -41.20970011	      4.06437545	     26.03468987	      8.75723895	      2.19582605	    -17.50662027	     26.81319215	     -6.60005282	     -1.34082054	      2.38207246	    -38.12014631	      7.13675735	    -21.99580043	     21.41320748	    -37.50845703	      2.61202292	      5.65203060
      2.00500000	     28.28520053	     -4.50892791	     -1.51209258	      0.37700866	      0.91256625	     -0.01435224	    -41.39584153	      4.15840072	     26.95858046	      8.53895726	      2.32997826	    -18.12464221	     26.62898808	     -6.20445828	     -1.64166723	      2.64691001	    -36.64614781	      6.85614953	    -22.43766273	     21.39519869	    -37.71634579	      2.76654262	      6.19772934
      2.01000000	     28.27251589	     -4.91347859	     -1.84682877	      0.38132264	      0.91192321	     -0.01398179	    -41.53157119	      4.31565585	     27.70385551	      8.17851958	      2.66335060	    -18.32414573	     26.60333829	     -5.84511819	     -2.02368849	      2.83350946	    -35.13996535	      6.70175184	    -22.58496722	     21.39276341	    -37.91149731	      2.93088693	      6.78248805
      2.01500000	     28.25090025	     -5.32152440	     -2.16134579	      0.38558676	      0.91124401	     -0.01369105	    -41.68948512	      4.46220844	     28.57988482	      7.90479909	      2.81459124	    -18.89338076	     26.45900535	     -5.51370212	     -2.40127930	      3.11536080	    -33.57426125	      6.34713356	    -23.06701340	     21.44820027	    -38.10676917	      3.11266644	      7.31314285
